<svg version="1.1" id="Layer_1" xmlns="http://www.w3.org/2000/svg" xmlns:xlink="http://www.w3.org/1999/xlink" x="0px" y="0px"
	 width="100%" viewBox="0 0 325 231" enable-background="new 0 0 325 231" xml:space="preserve">
<path fill="#FEFEFE" opacity="1.000000" stroke="none" 
	d="
M234.000000,232.000000 
	C156.000031,232.000000 78.500053,232.000000 1.000062,232.000000 
	C1.000042,155.000061 1.000042,78.000107 1.000021,1.000124 
	C109.333244,1.000083 217.666489,1.000083 325.999817,1.000041 
	C325.999878,77.999878 325.999878,154.999756 325.999939,231.999817 
	C295.500000,232.000000 265.000000,232.000000 234.000000,232.000000 
M172.183762,17.825724 
	C141.395004,19.176659 113.820396,28.741037 90.835495,49.857784 
	C78.010620,61.640282 68.821404,75.815506 65.056244,92.895088 
	C58.763508,121.440262 67.378601,145.810349 87.332520,166.485611 
	C89.961388,169.209518 90.821686,171.364212 88.796906,174.566254 
	C82.148178,185.080734 75.622925,195.674515 68.868851,206.120544 
	C66.548615,209.709091 64.831085,213.234467 67.570435,217.133698 
	C70.194649,220.869019 73.878235,221.243088 78.228027,220.185196 
	C97.625175,215.467743 116.034782,208.498932 132.854813,197.549210 
	C134.372314,196.561325 136.858170,196.460678 138.761169,196.769196 
	C146.957260,198.097916 155.044281,200.314987 163.278519,201.155685 
	C198.471634,204.748871 230.831940,197.078751 259.122070,175.238052 
	C275.190308,162.832932 286.600677,146.908768 290.972443,126.837044 
	C297.712402,95.892784 287.234772,70.216270 264.569519,49.471390 
	C238.815094,25.899025 207.608383,16.740141 172.183762,17.825724 
z"/>
<path fill="#252525" opacity="1.000000" stroke="none" 
	d="
M172.638168,17.807352 
	C207.608383,16.740141 238.815094,25.899025 264.569519,49.471390 
	C287.234772,70.216270 297.712402,95.892784 290.972443,126.837044 
	C286.600677,146.908768 275.190308,162.832932 259.122070,175.238052 
	C230.831940,197.078751 198.471634,204.748871 163.278519,201.155685 
	C155.044281,200.314987 146.957260,198.097916 138.761169,196.769196 
	C136.858170,196.460678 134.372314,196.561325 132.854813,197.549210 
	C116.034782,208.498932 97.625175,215.467743 78.228027,220.185196 
	C73.878235,221.243088 70.194649,220.869019 67.570435,217.133698 
	C64.831085,213.234467 66.548615,209.709091 68.868851,206.120544 
	C75.622925,195.674515 82.148178,185.080734 88.796906,174.566254 
	C90.821686,171.364212 89.961388,169.209518 87.332520,166.485611 
	C67.378601,145.810349 58.763508,121.440262 65.056244,92.895088 
	C68.821404,75.815506 78.010620,61.640282 90.835495,49.857784 
	C113.820396,28.741037 141.395004,19.176659 172.638168,17.807352 
M230.093369,143.841278 
	C194.537888,143.841278 158.982422,143.841278 123.547829,143.841278 
	C121.871574,155.843216 121.871574,155.843216 132.951080,155.843216 
	C164.086227,155.843216 195.221497,155.876465 226.356262,155.768478 
	C228.433136,155.761292 232.264832,154.740631 232.286148,154.092804 
	C232.396545,150.739014 231.532516,147.353149 230.093369,143.841278 
M232.998169,84.500671 
	C232.998169,82.340073 232.998184,80.179482 232.998184,78.018883 
	C232.998184,63.698746 233.000320,63.802792 218.695831,64.097710 
	C215.002335,64.173851 213.887558,65.422546 213.925934,69.092972 
	C214.099670,85.711220 214.001862,102.332306 214.001831,118.952370 
	C214.001816,133.419250 214.001495,133.286789 228.309601,133.252747 
	C232.090912,133.243744 233.118652,132.041138 233.072144,128.379166 
	C232.890610,114.088219 232.998138,99.793602 232.998169,84.500671 
M172.475937,70.635895 
	C173.179367,65.793831 171.510727,63.402508 166.226974,64.108566 
	C163.609970,64.458275 160.896561,64.323067 158.246735,64.131332 
	C154.889648,63.888424 153.448715,65.021774 153.469498,68.612068 
	C153.585083,88.591263 153.570511,108.571686 153.480316,128.551147 
	C153.465256,131.886337 154.420120,133.516342 158.041107,133.213272 
	C161.017227,132.964172 164.063934,132.880661 167.020142,133.227890 
	C171.602951,133.766159 172.598099,131.757874 172.556198,127.547684 
	C172.370621,108.901657 172.475967,90.252731 172.475937,70.635895 
M202.835876,129.102356 
	C202.836441,118.130211 202.837265,107.158066 202.837463,96.185921 
	C202.837738,81.050690 202.837540,81.050751 187.619553,81.830635 
	C187.453690,81.839142 187.221222,81.763313 187.130920,81.846878 
	C186.019592,82.875229 183.989182,83.913055 183.974609,84.972885 
	C183.769028,99.932014 183.801315,114.895210 183.921844,129.856247 
	C183.930054,130.875214 185.063339,132.734299 185.736252,132.763687 
	C190.870728,132.987991 196.025009,132.945312 201.160416,132.709152 
	C201.753876,132.681870 202.269440,130.960266 202.835876,129.102356 
M133.504257,133.002487 
	C143.380630,132.834457 142.043518,134.490662 142.165497,124.273972 
	C142.193222,121.951675 142.169571,119.628761 142.169571,117.306137 
	C142.169571,103.133766 142.170898,103.227837 127.993462,103.426933 
	C124.439224,103.476852 122.875740,104.430161 123.091438,108.258621 
	C123.380272,113.385307 123.176117,118.540550 123.160118,123.683464 
	C123.126808,134.386139 122.678085,132.939590 133.504257,133.002487 
z"/>
<path fill="#FAFAFA" opacity="1.000000" stroke="none" 
	d="
M230.550766,143.909882 
	C231.532516,147.353149 232.396545,150.739014 232.286148,154.092804 
	C232.264832,154.740631 228.433136,155.761292 226.356262,155.768478 
	C195.221497,155.876465 164.086227,155.843216 132.951080,155.843216 
	C121.871574,155.843216 121.871574,155.843216 123.547829,143.841278 
	C158.982422,143.841278 194.537888,143.841278 230.550766,143.909882 
z"/>
<path fill="#FEFEFE" opacity="1.000000" stroke="none" 
	d="
M232.998169,85.000504 
	C232.998138,99.793602 232.890610,114.088219 233.072144,128.379166 
	C233.118652,132.041138 232.090912,133.243744 228.309601,133.252747 
	C214.001495,133.286789 214.001816,133.419250 214.001831,118.952370 
	C214.001862,102.332306 214.099670,85.711220 213.925934,69.092972 
	C213.887558,65.422546 215.002335,64.173851 218.695831,64.097710 
	C233.000320,63.802792 232.998184,63.698746 232.998184,78.018883 
	C232.998184,80.179482 232.998169,82.340073 232.998169,85.000504 
z"/>
<path fill="#FEFEFE" opacity="1.000000" stroke="none" 
	d="
M172.475983,71.120377 
	C172.475967,90.252731 172.370621,108.901657 172.556198,127.547684 
	C172.598099,131.757874 171.602951,133.766159 167.020142,133.227890 
	C164.063934,132.880661 161.017227,132.964172 158.041107,133.213272 
	C154.420120,133.516342 153.465256,131.886337 153.480316,128.551147 
	C153.570511,108.571686 153.585083,88.591263 153.469498,68.612068 
	C153.448715,65.021774 154.889648,63.888424 158.246735,64.131332 
	C160.896561,64.323067 163.609970,64.458275 166.226974,64.108566 
	C171.510727,63.402508 173.179367,65.793831 172.475983,71.120377 
z"/>
<path fill="#FCFCFC" opacity="1.000000" stroke="none" 
	d="
M202.828491,129.563293 
	C202.269440,130.960266 201.753876,132.681870 201.160416,132.709152 
	C196.025009,132.945312 190.870728,132.987991 185.736252,132.763687 
	C185.063339,132.734299 183.930054,130.875214 183.921844,129.856247 
	C183.801315,114.895210 183.769028,99.932014 183.974609,84.972885 
	C183.989182,83.913055 186.019592,82.875229 187.130920,81.846878 
	C187.221222,81.763313 187.453690,81.839142 187.619553,81.830635 
	C202.837540,81.050751 202.837738,81.050690 202.837463,96.185921 
	C202.837265,107.158066 202.836441,118.130211 202.828491,129.563293 
z"/>
<path fill="#FCFCFC" opacity="1.000000" stroke="none" 
	d="
M133.023651,133.002487 
	C122.678085,132.939590 123.126808,134.386139 123.160118,123.683464 
	C123.176117,118.540550 123.380272,113.385307 123.091438,108.258621 
	C122.875740,104.430161 124.439224,103.476852 127.993462,103.426933 
	C142.170898,103.227837 142.169571,103.133766 142.169571,117.306137 
	C142.169571,119.628761 142.193222,121.951675 142.165497,124.273972 
	C142.043518,134.490662 143.380630,132.834457 133.023651,133.002487 
z"/>
</svg>